<svg id="Capa_1" data-name="Capa 1" xmlns="http://www.w3.org/2000/svg" width="1046.09" height="565.96" viewBox="0 0 1046.09 565.96"><path d="M3136,173.65c-10.27,4.67-20.74,9-30.77,14.12-10.47,5.37-17,14.3-21.58,25.16s-6.3,22.34-6.37,34q-.29,45.66.12,91.34c.12,16,1.43,32.07,1,48.07-.51,19-1.44,38.12-3.78,57-2.26,18.26-5.54,36.56-14.58,53.1-9.19,16.83-23.12,26.38-42.59,24-9.86-1.23-19.68-4.91-28.89-8.9Q2959.86,499,2931.86,485c-16.89-8.48-34.11-16.21-53-17.52-16.13-1.11-32.58-1.34-48.61.5-55.94,6.4-108.89,25.05-162.3,41.59-41.14,12.74-82.06,26.19-123.18,39a141.41,141.41,0,0,1-25.7,5.27c-13.47,1.54-30-5-32.35-22.84-.82-6.21,1.77-13.83,5.13-19.41,7.27-12.09,15.13-24.07,24.37-34.68,29.69-34.06,60.3-67.31,90.21-101.17,48.91-55.4,98.57-110.21,139.43-172.11,13.74-20.82,26.51-42.27,34.84-65.85,4.22-11.92,6.45-24.59,8.91-37.05.73-3.73-.54-8-1.4-11.86-.72-3.32-3-4.69-6.73-4.88-13.61-.66-25,5.63-35.95,12-43.37,25.14-80.69,57.49-112.47,96.23-11.53,14.06-23,28.19-34.55,42.21-15.18,18.36-34.74,29.13-58.29,32.21-7.22.94-14.67.27-22,.13-25.53-.47-50,5.7-74.4,12-18.4,4.77-36.25,11.11-52.67,20.9-10.18,6.06-19.54,13.1-23.34,25-1,3.06-1.67,7.1-.48,9.8,5.13,11.67,10.55,23.27,16.74,34.4,8.63,15.54,19.22,30.07,26.8,46.06,8.94,18.85,5.11,36.92-9,52.54-13.52,14.92-30.47,25.15-48.35,33.53-29,13.56-58.25,26.43-87.67,39-45.67,19.46-91.12,39.4-133.86,64.76-10.31,6.12-20.25,9-31.82,7.92-2.84-.26-5.73,0-10.17,0,2.29-2,3.57-3.14,4.91-4.25,47-38.91,100.7-66.05,156.34-90,28.84-12.39,57.68-24.85,86-38.37,12.68-6.05,24.58-14.11,35.94-22.47,14-10.29,15.83-20.47,6.8-35.35-7.63-12.58-16.62-24.34-24.76-36.62-8.61-13-15.76-26.62-18.66-42.19-3.66-19.7.8-37.16,14.2-52.11,13-14.46,29.52-23.6,47.21-30.87a326.83,326.83,0,0,1,85-22.51c17.68-2.17,35.23-5.41,52.91-7.67,16.82-2.14,28.61-11.78,38.94-24.2,17.12-20.61,33.89-41.55,51.76-61.5,24.53-27.39,53.16-50.12,83.9-70.24,15.28-10,31.13-18.85,48.73-24.17a68.89,68.89,0,0,1,31.74-2.31c20,3.46,33.82,22.44,34.85,42.9,1.91,37.74-13,70.17-30.47,101.79-24.55,44.44-55.49,84.48-88.45,122.86-40.16,46.77-81.33,92.67-122,139-16.17,18.4-32.2,36.93-48.29,55.42a4.44,4.44,0,0,0-1.11,3.4c6.69-1.88,13.45-3.54,20.06-5.68,37.53-12.14,75-24.61,112.55-36.55,44.63-14.17,89.51-27.63,135.53-36.59,22.87-4.45,46-6.43,69.49-4.63,31.43,2.4,59.47,14,87,28.44,17.57,9.24,36.21,16.52,54.59,24.16,8.69,3.61,11.29,2.67,14.4-6.4a211.35,211.35,0,0,0,8-32c6.54-37,5-74.46,4.73-111.81-.23-31.16-2.43-62.4-.76-93.45,1.88-35,14.52-70,57.24-88.72,12.44-5.46,25.18-10.24,37.79-15.33Z" transform="translate(-2089.91 -46.88)" fill="#bcf45b"/></svg>