<svg id="Capa_1" data-name="Capa 1" xmlns="http://www.w3.org/2000/svg" width="34.05" height="34.16" viewBox="0 0 34.05 34.16">
    <defs>
        <linearGradient id="gradientFill" x1="0%" y1="50%" x2="100%" y2="50%">
            <stop offset="0%" stop-color="rgba(130,43,190,1)"/>
            <stop offset="39%" stop-color="rgba(251,111,172,1)"/>
            <stop offset="67%" stop-color="rgba(227,158,61,1)"/>
            <stop offset="83%" stop-color="rgba(253,229,81,1)"/>
            <stop offset="100%" stop-color="rgba(205,245,103,1)"/>
        </linearGradient>
    </defs>

    <path d="M11.69,26a2,2,0,0,0,2-2V14.62a2,2,0,1,0-4,0V24A2,2,0,0,0,11.69,26Z" transform="translate(-3.9 -4.24)" fill="url(#gradientFill)"/>
    <path d="M17.77,31.31a2,2,0,0,0,2-2V6.22a2,2,0,0,0-4,0V29.33A2,2,0,0,0,17.77,31.31Z" transform="translate(-3.9 -4.24)" fill="url(#gradientFill)"/>
    <path d="M29.92,25.63a2,2,0,0,0,2-2V15.91a2,2,0,1,0-4,0v7.73A2,2,0,0,0,29.92,25.63Z" transform="translate(-3.9 -4.24)" fill="url(#gradientFill)"/>
    <path d="M23.85,28.76a2,2,0,0,0,2-2V19a2,2,0,0,0-4,0v7.73A2,2,0,0,0,23.85,28.76Z" transform="translate(-3.9 -4.24)" fill="url(#gradientFill)"/>
    <path d="M5.88,21.87a2,2,0,0,0,2-2V19a2,2,0,0,0-4,0v.85A2,2,0,0,0,5.88,21.87Z" transform="translate(-3.9 -4.24)" fill="url(#gradientFill)"/>
    <path d="M23.85,15.86a2,2,0,0,0,2-2V13a2,2,0,1,0-4,0v.84A2,2,0,0,0,23.85,15.86Z" transform="translate(-3.9 -4.24)" fill="url(#gradientFill)"/>
    <path d="M37.94,24.08V19.31a2,2,0,0,0-4,0V24h0a1.5,1.5,0,0,1,0,.2c0,5.65-5.92,10.24-13.19,10.24-5.89,0-10.9-3-12.58-7.17a2,2,0,0,0-3.86.6,1.87,1.87,0,0,0,.1.59h0a.61.61,0,0,1,.05.12l.06.13c2.28,5.62,8.7,9.69,16.25,9.69,9.46,0,17.15-6.38,17.15-14.21Z" transform="translate(-3.9 -4.24)" fill="url(#gradientFill)"/>
</svg>
