<svg id="Capa_1" data-name="Capa 1" xmlns="http://www.w3.org/2000/svg" width="2984.56" height="1084.32" viewBox="0 0 2984.56 1084.32"><path d="M2982.69-242.81l2.27-.72Z" transform="translate(-0.4 243.53)" fill="#feec76"/><path d="M.4,646.43c4.05,2,8.38,3.58,12.1,6.07,33.71,22.57,67.53,45,100.9,68.07,40.62,28.09,84.37,48.91,132.73,59.55,16.74,3.68,33.53,7.14,50.39,10.22,21.73,4,43.42,8.78,65.35,10.8a729.16,729.16,0,0,0,76,2.58c31-.39,60.17-9.92,88.28-22.36,54.78-24.24,106.36-54.11,155.86-87.83,57.62-39.27,116.66-76.38,179.85-106.14,51.3-24.17,103.94-45.22,159.32-58.28a350,350,0,0,1,51.28-7.69,410.37,410.37,0,0,1,106.51,4.46c22.75,3.62,45.54,7.46,67.9,12.92s44.39,12.79,66.36,19.9c5,1.6,6.88.64,9.41-3.41,27.23-43.47,61.82-79.84,105.52-107,34.54-21.47,71-38.56,112-43.57,7.74-1,15.55-1.45,23.34-1.84,14.87-.75,29.74-1.47,44.62-1.8,8.76-.19,17.53.64,26.3.54,15.64-.17,31.32-.19,46.92-1.22,21.23-1.41,42.56-2.72,63.59-5.8,58.21-8.52,113.07-26.24,160.64-62.37,4.23-3.22,8.24-6.72,13.2-10.78,0,12.54-.62,24.32.21,36,.59,8.19-2.35,12.72-9.15,16.93-31,19.21-63.63,34.45-99,43.32-21,5.28-42.31,10-63.7,13.54-14.94,2.49-30.25,3-45.43,3.72-23,1.06-46.11,1.52-69.16,2.24l-3.48,1.1q-24.07,0-48.15,0c-62.83-.09-116.22,24.43-163.91,63.35-23,18.78-42.29,41-58.67,65.77-1.57,2.37-3,4.83-4.92,7.88,3.75,2.09,7.18,4,10.61,5.9,19.16,10.59,38.23,21.39,51.91,39.11,5,6.46,8.86,13.79,13.13,20.79,1.29,2.12,1.83,4.78,3.38,6.63,6.26,7.48,5.69,16,3.77,24.51-3.13,13.93-10.06,26.1-19.33,36.76a160.13,160.13,0,0,1-67.46,46.16c-33,11.94-54.07-9.37-61.82-30.69-8-22.17-7.41-44.92-5-67.8,2.18-20.31,8.74-39.41,16.65-58.11.52-1.23,1-2.48,1.42-3.75a7.78,7.78,0,0,0-.13-1.92c-9.08-3-18.34-6.62-27.88-9.11-24.56-6.39-49.12-12.89-73.93-18.14-15.55-3.3-31.53-4.71-47.38-6.44-14.33-1.56-28.76-3.49-43.11-3.26a363.94,363.94,0,0,0-53.3,4.3c-73.75,12.16-141.52,41.57-207.34,75.37-54.2,27.83-105.18,61.22-155.72,95.25-57.63,38.8-117.7,73.21-183.56,96.43-18.63,6.57-37.86,11.17-57.61,12.1-21.35,1-42.83,2.11-64.12.88s-42.59-4.75-63.72-8.2c-26.73-4.37-53.48-8.88-79.91-14.74A410.38,410.38,0,0,1,97,753.72C66.3,732.49,35.34,711.63,4.47,690.65A22.27,22.27,0,0,0,.4,688.94Zm1335-39c-8.16,18.21-14.39,35.69-16.59,54.46-2,16.95-2.68,33.81,3.29,50.2,3.35,9.21,7.1,11.16,16.24,8,21.91-7.57,39.61-20.93,54.12-39,7.76-9.67,7.46-18.71,1.46-28.85C1380.52,629.58,1357.68,619.72,1335.36,607.38Z" transform="translate(-0.4 243.53)" fill="#fee540"/><path d="M1629,438.31l3.48-1.1Z" transform="translate(-0.4 243.53)" fill="#feec76"/></svg>